<svg xmlns="http://www.w3.org/2000/svg" width="800" height="520" viewBox="0 0 800 520">
  <rect width="800" height="520" fill="#eeeaf6"/>
  <rect x="48" y="48" width="704" height="424" rx="24" fill="#fff" stroke="#e4dced"/>
  <text x="80" y="108" font-family="-apple-system, BlinkMacSystemFont, "Segoe UI", Helvetica, Arial, sans-serif" font-size="13" font-weight="600" fill="#94a3b8">HARDENING</text>
  <rect x="80" y="140" width="22" height="22" rx="6" fill="#dcfce7"/>
  <path d="M85 151l5 5 10-10" fill="none" stroke="#16a34a" stroke-width="2"/>
  <text x="120" y="158" font-family="-apple-system, BlinkMacSystemFont, "Segoe UI", Helvetica, Arial, sans-serif" font-size="18" fill="#2c1454">Firewall is on</text>
  <rect x="80" y="196" width="22" height="22" rx="6" fill="#dcfce7"/>
  <path d="M85 207l5 5 10-10" fill="none" stroke="#16a34a" stroke-width="2"/>
  <text x="120" y="214" font-family="-apple-system, BlinkMacSystemFont, "Segoe UI", Helvetica, Arial, sans-serif" font-size="18" fill="#2c1454">fail2ban is present</text>
  <rect x="80" y="252" width="22" height="22" rx="6" fill="#dcfce7"/>
  <path d="M85 263l5 5 10-10" fill="none" stroke="#16a34a" stroke-width="2"/>
  <text x="120" y="270" font-family="-apple-system, BlinkMacSystemFont, "Segoe UI", Helvetica, Arial, sans-serif" font-size="18" fill="#2c1454">Time sync looks sane</text>
  <rect x="80" y="308" width="22" height="22" rx="6" fill="#ffe4e6"/>
  <text x="86" y="325" font-family="-apple-system, BlinkMacSystemFont, "Segoe UI", Helvetica, Arial, sans-serif" font-size="16" font-weight="700" fill="#e11d48">!</text>
  <text x="120" y="326" font-family="-apple-system, BlinkMacSystemFont, "Segoe UI", Helvetica, Arial, sans-serif" font-size="18" fill="#2c1454">SSH password login is still on</text>
  <rect x="80" y="372" width="220" height="36" rx="18" fill="#b295f6" fill-opacity="0.2"/>
  <text x="100" y="396" font-family="-apple-system, BlinkMacSystemFont, "Segoe UI", Helvetica, Arial, sans-serif" font-size="14" font-weight="600" fill="#2c1454">Cosign-signed · keyless</text>
</svg>
